<svg xmlns="http://www.w3.org/2000/svg" viewBox="0 0 128 160" fill="#ffe34d" role="img" aria-labelledby="title"><title id="title">Medalhas — Helldivers BR</title><defs><mask id="medal" maskUnits="userSpaceOnUse" x="0" y="0" width="128" height="160"><g fill="white"><path d="M24 0 64 12 104 0v25L64 12 24 25zM64 27l43 17 21 48-13 41-51 27-51-27L0 92l21-48z"/><path d="m64 51 31 11-4 31 11 10-8 17-14-7v18l-16 9-16-9v-18l-14 7-8-17 11-10-4-31z" fill="black"/><circle cx="48" cy="98" r="8"/><circle cx="80" cy="98" r="8"/><path d="m64 107 6 10H58zM51 126h7v14h-7zM61 128h6v14h-6zM70 126h7v14h-7z"/></g></mask></defs><path d="M0 0h128v160H0z" mask="url(#medal)"/></svg>
